inDegrees=no
num_controls=7
num_derivatives=13
num_iterations=124
num_multipliers=7
num_parameters=0
num_slacks=7
num_states=26
objective=1.446370
objective_accelerations=0.015026
objective_balance=0.002214
objective_effort=0.012304
objective_height=0.407495
objective_ligament=1.009331
solver_duration=1613.391425
status=Solve_Succeeded
success=true
DataType=double
version=3
OpenSimVersion=4.5
endheader
time	/jointset/ground_pelvis/pelvis_tilt/value	/jointset/ground_pelvis/pelvis_tx/value	/jointset/ground_pelvis/pelvis_ty/value	/jointset/hip_l/hip_flexion_l/value	/jointset/hip_l/hip_adduction_l/value	/jointset/hip_l/hip_rotation_l/value	/jointset/back/lumbar_extension/value	/jointset/patellofemoral_l/patellar_flexion_l/value	/jointset/knee_l/knee_flexion_l/value	/jointset/knee_l/knee_adduction_l/value	/jointset/knee_l/knee_rotation_l/value	/jointset/ankle_l/ankle_angle_l/value	/jointset/subtalar_l/subtalar_angle_l/value	/jointset/ground_pelvis/pelvis_tilt/speed	/jointset/ground_pelvis/pelvis_tx/speed	/jointset/ground_pelvis/pelvis_ty/speed	/jointset/hip_l/hip_flexion_l/speed	/jointset/hip_l/hip_adduction_l/speed	/jointset/hip_l/hip_rotation_l/speed	/jointset/back/lumbar_extension/speed	/jointset/patellofemoral_l/patellar_flexion_l/speed	/jointset/knee_l/knee_flexion_l/speed	/jointset/knee_l/knee_adduction_l/speed	/jointset/knee_l/knee_rotation_l/speed	/jointset/ankle_l/ankle_angle_l/speed	/jointset/subtalar_l/subtalar_angle_l/speed	/forceset/tau_hip_flexion_l	/forceset/tau_hip_adduction_l	/forceset/tau_hip_rotation_l	/forceset/tau_knee_flexion_l	/forceset/tau_ankle_angle_l	/forceset/tau_subtalar_angle_l	/forceset/tau_lumbar_extension	lambda_cid13_p0	lambda_cid13_p1	lambda_cid13_p2	lambda_cid13_p3	lambda_cid13_p4	lambda_cid13_p5	lambda_cid14_p0	/jointset/ground_pelvis/pelvis_tilt/accel	/jointset/ground_pelvis/pelvis_tx/accel	/jointset/ground_pelvis/pelvis_ty/accel	/jointset/hip_l/hip_flexion_l/accel	/jointset/hip_l/hip_adduction_l/accel	/jointset/hip_l/hip_rotation_l/accel	/jointset/back/lumbar_extension/accel	/jointset/patellofemoral_l/patellar_flexion_l/accel	/jointset/knee_l/knee_flexion_l/accel	/jointset/knee_l/knee_adduction_l/accel	/jointset/knee_l/knee_rotation_l/accel	/jointset/ankle_l/ankle_angle_l/accel	/jointset/subtalar_l/subtalar_angle_l/accel	gamma_cid13_p0	gamma_cid13_p1	gamma_cid13_p2	gamma_cid13_p3	gamma_cid13_p4	gamma_cid13_p5	gamma_cid14_p0
0.5	-0.2532606015734524	0.01321898052091153	0.8616122897463442	0.6860186002914661	-0.2963849132322234	-0.2193474229034184	-0.4022665087702454	0.35708557796304	0.3570855779631131	0.01540486049627622	-0.1744755846598192	0.02711170000435188	0.1375538812615539	-0.9863706088757789	-0.1698423311153044	-0.1621479664319124	1.496451214637744	-0.05362925108477601	0.1559876316016036	-0.2929784886305843	0.3620779281938303	0.3620779281938343	-0.04043162375487075	4.101667611217992e-05	-0.1535604751023662	-0.1108667026385631	-0.1203238249022714	0.0635785558255182	-0.006759182020264855	-0.06910469027594328	0.04515655958446175	-0.02846761621916733	0.1271761543676337	-13.39847797141734	11.5408464476024	1.498384407532465	-1.299741146930614	-453.2478100936411	-34.47439188879063	-24.7009081745221	0.2264004465160416	0.3435816921960276	-0.01406980479429326	-1.031152006516307	0.08316489098986093	-0.2467624589052465	1.398284998761741	-0.4887078659515795	-0.4887078659515864	0.03300086391986833	-0.005025415123360679	0.3348703115284972	0.2295263050063224	-1.113220832449594e-08	3.150460700077527e-08	2.403193930240939e-08	2.239892511415526e-10	-2.343728662627404e-08	2.047736648982528e-08	-4.561842867409082e-09
0.51	-0.2631115940733936	0.01153795103093116	0.8599904248572787	0.7009294804746313	-0.2969170790660309	-0.2177997751976416	-0.4051266139704721	0.3606815285134897	0.3606815285135163	0.01500203199366762	-0.1744752144896835	0.02559307964058041	0.1364567108266792	-0.9837010172676913	-0.1663419485627737	-0.1621943781253516	1.485537518700309	-0.05279842091825064	0.1535275511083683	-0.2790455776930745	0.3570794365271716	0.3570794365271866	-0.04012420821083823	3.295357533635865e-05	-0.1501344906361916	-0.1085542327115688	-0.1253996826086708	0.06472921161016625	-0.006847246336254199	-0.06636878194029133	0.04316537351730488	-0.02796673868658833	0.1306150811155025	-14.03545100928653	11.33521637854655	1.64496696136936	-1.251006017578712	-454.3906366201145	-34.3505094030948	-24.65514900353773	0.306267036073178	0.356509425670245	0.004664001496988099	-1.149576814380906	0.08386251272082001	-0.2477865295312136	1.390340199787206	-0.5103307365244157	-0.5103307365227286	0.03109772937232667	0.001296887020749452	0.3508280575968711	0.234072699941449	-1.088954227646443e-08	2.986245639287167e-08	2.258235986345891e-08	1.265763811027741e-09	-1.830298909294519e-08	1.899903857871344e-08	-4.294756367396918e-09
0.52	-0.2729320849536345	0.009892573944253615	0.8583690140219017	0.7157256040130127	-0.2974407725115201	-0.2162771594338003	-0.4078474808496166	0.3642265119633749	0.3642265119633519	0.01460257481244189	-0.174474926221636	0.02410959223015799	0.1353830581637538	-0.9802702849348631	-0.1627118504547386	-0.162057155694206	1.473499885681923	-0.05193477342224924	0.1509812432151919	-0.265130824413889	0.3518845080804571	0.3518845080804832	-0.03975735947770802	2.46362575782054e-05	-0.1465338844326214	-0.1061631482487562	-0.1304755403150982	0.06587986739481114	-0.006935310652260033	-0.06363287360465278	0.04117418745014417	-0.02746586115401369	0.1340540078633502	-14.67462607118977	11.13098396523073	1.790170647308144	-1.213826917685152	-455.5702176825909	-34.23266209164284	-24.60905697720077	0.3786285914643998	0.3695248032967593	0.02265702012267338	-1.255939422706443	0.08972835688509614	-0.2640079388934682	1.394653467097021	-0.527995221962735	-0.5279952219627227	0.04488750173945552	-0.00507625851983495	0.3697946590074268	0.2452492121699608	-1.070907814610252e-08	2.827792005264742e-08	2.108576813564187e-08	2.392690870310744e-09	-1.350814026425791e-08	1.762637025039718e-08	-4.022830600095176e-09
0.53	-0.2827145508756401	0.008284116739843311	0.8567498831548244	0.7303959169640519	-0.2979556594688626	-0.2147804351466804	-0.4104293024428663	0.3677186339020961	0.3677186339020677	0.01420711607880743	-0.1744747388076943	0.02266296493181306	0.134333708106074	-0.9760970415517093	-0.1589603637631044	-0.161738401786614	1.460382311006881	-0.05103814495364224	0.1483514704063667	-0.2512458508056861	0.3465107481021744	0.3465107481022096	-0.03932596593521091	1.308179859641512e-05	-0.1427651389979986	-0.1036958372309759	-0.1354345266711992	0.06698144243024863	-0.007014707778317906	-0.06097960136653354	0.03923237502529338	-0.02697720708751941	0.1373773557222999	-15.2995764336094	10.9333277190558	1.930033179004414	-1.164276606422527	-456.7297263718085	-34.11726957627931	-24.56268178943221	0.4555488297826636	0.3808451982639359	0.04107476832645719	-1.366727817750169	0.09029742264675933	-0.2642849921208433	1.383565822517197	-0.5464353440313183	-0.5464353440299304	0.0435335391145737	0.0008429369875452737	0.3843792477714127	0.2491194355286521	-1.058942302587661e-08	2.67844721794924e-08	1.954881621940731e-08	3.598357497970641e-09	-8.960660054103817e-09	1.639207848082603e-08	-3.750960707870435e-09
0.54	-0.2924515090402099	0.006713751321582612	0.8551348578652725	0.7449296419027667	-0.2984614466753529	-0.2133103731957021	-0.4128726449970681	0.3711561444493825	0.3711561444493465	0.01381622493231858	-0.1744746593430227	0.02125481804023111	0.1333093606363616	-0.9711687334468665	-0.1550934932248177	-0.1612360401891104	1.446182283217959	-0.05011482325310634	0.1456487759877904	-0.2374350166040624	0.3409622297930805	0.3409622297931248	-0.03884384204832238	3.046402610540509e-06	-0.1388378030801095	-0.1011626306553323	-0.1403935130273307	0.0680830174656797	-0.007094104904387407	-0.05832632912842831	0.03729056260043758	-0.02648855302103338	0.1407007035812271	-15.92678820172443	10.73699854887196	2.068620586912719	-1.127619876792568	-457.9291387486287	-34.00818365260849	-24.51607388130986	0.5296415358024079	0.392601572627122	0.05937855810498317	-1.472430045482254	0.09506700327090245	-0.2785922608436861	1.379825585781316	-0.5629468881249624	-0.562946888124959	0.05503357061779286	-0.004772445920655731	0.4015127556605071	0.2584283237426049	-1.053704595941819e-08	2.539180303586079e-08	1.796721047768953e-08	4.89114024383476e-09	-4.686864272965176e-09	1.531088418050479e-08	-3.479152634879822e-09
0.55	-0.302135494764614	0.005182603659978338	0.8535257626616112	0.7593161282221502	-0.2989578592984378	-0.211867706438742	-0.4151782506522383	0.3745373527116641	0.3745373527116843	0.01343044215710769	-0.1744746903875605	0.01988671439558125	0.1323106748191743	-0.9655033761428176	-0.1511190228905572	-0.160552535229068	1.430940745579905	-0.04916409857783369	0.1428741378219769	-0.2237068357460985	0.3352531704732649	0.335253170473312	-0.03830560786360859	-8.908214882914021e-06	-0.134759301107146	-0.09856544202073367	-0.1452315736212624	0.06914106917062279	-0.007166079144605473	-0.05574464090559156	0.03538054615746353	-0.02601172016415892	0.1439071511570868	-16.54467103356946	10.54716046701938	2.202757182094711	-1.07417319625681	-459.0960679127712	-33.89915465920667	-24.46928671255677	0.6037365514317082	0.4024233135390919	0.0774057909069928	-1.576152559036669	0.09561221831855984	-0.278466237631099	1.366206138659904	-0.5788226162564661	-0.5788226162560162	0.05428868484759823	0.0006472283925858359	0.4145617640578995	0.261722054886719	-1.052796509182136e-08	2.409605599845748e-08	1.638032366114915e-08	6.220808153262059e-09	-6.136346682510128e-10	1.434730054064049e-08	-3.21354214163978e-09
0.5600000000000001	-0.3117590761712362	0.003691711411659243	0.8519244163727406	0.7735449717779348	-0.2994446572710301	-0.2104530993920819	-0.4173471961382588	0.3778606829482801	0.3778606829483551	0.01305025579223388	-0.1744748301386574	0.01856010433985024	0.131338232472647	-0.9590878698897295	-0.1470424105677818	-0.1596862572309537	1.414653730499066	-0.04819189315603772	0.1400368339289274	-0.2101029827738868	0.3293866246595852	0.3293866246596351	-0.037724559980916	-1.869491012520649e-05	-0.1305390852964389	-0.09591393652340678	-0.1500696342152266	0.07019912087555685	-0.00723805338483027	-0.05316295268276926	0.03347052971448349	-0.02553488730729583	0.147113598732923	-17.16487673665078	10.35857777360371	2.335724256341208	-1.034938834713752	-460.3060685105148	-33.79670292793555	-24.42237431826833	0.6796713256104153	0.4130299703299599	0.09593316571932742	-1.681525534039407	0.09936315257559217	-0.2911254062908842	1.354960008631033	-0.5944441868977793	-0.5944441868977641	0.06359631021360852	-0.00433886147042266	0.4298555232090941	0.2692916962882301	-1.057083966285843e-08	2.291661548852815e-08	1.478709955482165e-08	7.59473825896517e-09	3.218915524753784e-09	1.352484969332454e-08	-2.955368744100423e-09
0.5700000000000001	-0.3213148389234922	0.002242067581735297	0.850332632915245	0.7876058894091392	-0.2999216181393221	-0.2090671831994077	-0.419380724050333	0.3811246090562819	0.3811246090563273	0.01267612405665247	-0.1744750735351935	0.01727637648687284	0.1303925753471224	-0.9519405440274936	-0.1428715925536273	-0.1586403480222797	1.397361723105088	-0.04719760591205439	0.1371376225086826	-0.1966316955367228	0.3233748716229052	0.3233748716229401	-0.03709628022758776	-2.951951804467534e-05	-0.1261860094780765	-0.09321044007937401	-0.1547756846520333	0.07121543952829104	-0.007303575418710143	-0.05064690654977689	0.03157807784660647	-0.02506888055870432	0.1501956646561003	-17.77941093200668	10.17614219352719	2.464926096292168	-0.9735841082051369	-461.4673207995544	-33.69295490069257	-24.37539379419164	0.7508826155127188	0.4213238205003446	0.1134338126711353	-1.7782503090255	0.09985958068955343	-0.290636865714448	1.338848697162469	-0.6080990978889649	-0.6080990978912003	0.06327395135369553	0.0006170470955943741	0.4411039134770552	0.2719309676656333	-1.066609233662779e-08	2.184501792543332e-08	1.320558984110092e-08	9.014169724574085e-09	6.863979703018511e-09	1.279667186812902e-08	-2.699942589284819e-09
0.58	-0.3307954045373327	0.0008345751526612139	0.8487522113526816	0.8014888445730098	-0.3003885565210903	-0.2077105226921073	-0.4212804119668559	0.3843277059867509	0.3843277059867666	0.01230844114729776	-0.1744754109162949	0.0160367934525451	0.1294741636558795	-0.9440484422059404	-0.1386121303978091	-0.1574138782444749	1.379061237033171	-0.04618739585287833	0.1341856968555118	-0.1833349836634165	0.3172207891527914	0.3172207891528111	-0.03643479473580748	-3.74918240318719e-05	-0.1217101215666265	-0.09046484966714895	-0.1594817350888738	0.0722317581810144	-0.00736909745259084	-0.04813086041679922	0.02968562597872275	-0.02460287381012632	0.1532777305792533	-18.39633446319185	9.994888618727773	2.593067224757473	-0.9277261792913823	-462.6748634208823	-33.59606856268051	-24.32840205408972	0.828626517474107	0.4307587986625659	0.1320452795454855	-1.883221269627347	0.1025477156141658	-0.3016682528761033	1.32004493585965	-0.6229100735845351	-0.6229100735845448	0.07023745790407589	-0.003768401083963115	0.4544179418264601	0.2777104899266716	-1.082955835349035e-08	2.091386699077414e-08	1.163933608054253e-08	1.049285877517659e-08	1.026487604813335e-08	1.21912682112764e-08	-2.448094238946665e-09
